<svg width="54" height="68" viewBox="0 0 54 68" fill="none" xmlns="http://www.w3.org/2000/svg">
<path d="M20.735 11.4166L16.264 33.6373H25.253L20.738 11.4166H20.735ZM20.735 11.4166L16.264 33.6373H25.253L20.738 11.4166H20.735ZM16.264 33.6373H25.253L20.738 11.4166L16.266 33.6373H16.264ZM35.554 45.8588V44.0107H38.745L31.869 10.2119H22.553L25.263 23.0922H33.665L33.944 24.9403H25.651L30.046 45.8588H27.512L25.575 35.4905H15.896L13.915 45.8588H11.424L19.257 8.3664H36.943L37.216 10.2145H34.184L41.065 44.0133H44.661L44.934 45.8614H35.552L35.554 45.8588ZM26.999 0C12.085 0 0 12.1395 0 27.1139C0 42.0883 12.085 54.2278 26.999 54.2278C41.912 54.2278 54.003 42.0883 54.003 27.1139C54.003 12.1395 41.91 0 26.999 0ZM20.738 11.4166L16.266 33.6373H25.255L20.74 11.4166H20.738ZM20.738 11.4166L16.266 33.6373H25.255L20.74 11.4166H20.738Z" fill="#003B4B"/>
<path d="M1.81699 64.1577H4.14999L2.97099 58.2033L1.81699 64.1577ZM0.106995 67.8641L2.42799 56.8268H3.51199L5.84499 67.8641H4.82699L4.283 64.9062H1.66899L1.11299 67.8641H0.109993H0.106995Z" fill="#003B4B"/>
<path d="M7.177 67.8641V56.8268H11.126V57.6035H8.20799V61.7585H10.638V62.5223H8.20799V67.8641H7.177Z" fill="#003B4B"/>
<path d="M13.474 56.8268H12.443V67.8641H13.474V56.8268Z" fill="#003B4B"/>
<path d="M18.18 67.8641V56.8268H19.227V61.7175H22.685V56.8268H23.716V67.8641H22.685V62.4942H19.227V67.8641H18.18Z" fill="#003B4B"/>
<path d="M28.237 67.1695C28.724 67.1695 29.097 67.0721 29.35 66.8773C29.602 66.6825 29.778 66.4083 29.873 66.0597C29.967 65.7111 30.016 65.3035 30.016 64.8396V59.8387C30.016 59.3747 29.967 58.9723 29.873 58.6263C29.778 58.2802 29.605 58.0162 29.35 57.8291C29.097 57.642 28.724 57.5497 28.237 57.5497C27.749 57.5497 27.389 57.642 27.132 57.8291C26.874 58.0162 26.698 58.2802 26.603 58.6263C26.509 58.9723 26.46 59.3747 26.46 59.8387V64.8396C26.46 65.3035 26.509 65.7085 26.603 66.0597C26.698 66.4083 26.874 66.6825 27.132 66.8773C27.389 67.0721 27.757 67.1695 28.237 67.1695ZM28.237 68C27.512 68 26.945 67.8565 26.534 67.572C26.124 67.2849 25.833 66.8876 25.667 66.3724C25.498 65.8597 25.417 65.2702 25.417 64.6089V60.0309C25.417 59.3594 25.503 58.775 25.682 58.2802C25.858 57.7855 26.152 57.4011 26.565 57.1294C26.976 56.8577 27.535 56.7192 28.242 56.7192C28.949 56.7192 29.518 56.8551 29.932 57.1294C30.343 57.4011 30.636 57.7855 30.807 58.2802C30.978 58.775 31.065 59.3594 31.065 60.0309V64.6242C31.065 65.2881 30.981 65.8725 30.815 66.3826C30.646 66.8927 30.36 67.29 29.952 67.5745C29.546 67.8616 28.974 68.0026 28.242 68.0026" fill="#003B4B"/>
<path d="M34.125 67.8641V57.6317H32.047V56.8268H37.165V57.6317H35.156V67.8641H34.125Z" fill="#003B4B"/>
<path d="M38.372 67.8641V56.8268H42.346V57.6317H39.416V61.7739H41.805V62.5352H39.416V67.0875H42.374V67.8641H38.372Z" fill="#003B4B"/>
<path d="M43.786 67.8641V56.8268H44.817V67.0875H47.938V67.8641H43.786Z" fill="#003B4B"/>
<path d="M51.302 68C50.705 68 50.21 67.8744 49.817 67.6258C49.424 67.3772 49.128 67.026 48.929 66.5774C48.729 66.1263 48.607 65.6034 48.561 65.0036L49.47 64.7319C49.516 65.1856 49.597 65.5983 49.715 65.9648C49.832 66.3339 50.018 66.6236 50.271 66.8363C50.524 67.0491 50.873 67.1567 51.315 67.1567C51.803 67.1567 52.183 67.0286 52.456 66.7748C52.726 66.521 52.862 66.116 52.862 65.5624C52.862 65.0805 52.742 64.6601 52.502 64.3013C52.262 63.9424 51.935 63.5682 51.519 63.176L49.579 61.31C49.235 60.9742 48.982 60.6256 48.819 60.2667C48.655 59.9079 48.574 59.5157 48.574 59.0877C48.574 58.3238 48.801 57.7394 49.253 57.3293C49.704 56.9192 50.307 56.7167 51.057 56.7167C51.445 56.7167 51.797 56.7654 52.109 56.8653C52.42 56.9653 52.688 57.1268 52.91 57.3498C53.132 57.5728 53.306 57.8599 53.433 58.2162C53.561 58.5699 53.645 59.0031 53.691 59.5106L52.808 59.7413C52.772 59.2773 52.698 58.88 52.584 58.5494C52.471 58.2187 52.293 57.965 52.055 57.7932C51.815 57.6215 51.483 57.5343 51.057 57.5343C50.605 57.5343 50.235 57.6523 49.944 57.8881C49.653 58.1239 49.511 58.493 49.511 58.9928C49.511 59.2927 49.567 59.5644 49.679 59.8105C49.791 60.0566 49.993 60.318 50.284 60.6L52.224 62.4404C52.658 62.8505 53.033 63.3042 53.349 63.804C53.666 64.3038 53.824 64.8678 53.824 65.4932C53.824 66.0468 53.717 66.5108 53.505 66.8825C53.293 67.2541 52.997 67.5335 52.617 67.7206C52.236 67.9077 51.797 68 51.3 68" fill="#003B4B"/>
</svg>
