<svg width="82" height="52" viewBox="0 0 82 52" fill="none" xmlns="http://www.w3.org/2000/svg">
<mask id="mask0_1_73" style="mask-type:luminance" maskUnits="userSpaceOnUse" x="0" y="0" width="82" height="52">
<path d="M82 0H0V52H82V0Z" fill="white"/>
</mask>
<g mask="url(#mask0_1_73)">
<path d="M23.9751 44.6087H26.4548C27.8786 44.6087 28.7213 45.1544 28.7213 46.4212V46.4602C28.7213 47.1523 28.4113 47.698 27.6267 47.9415C28.5664 48.1462 29.012 48.6628 29.012 49.5885V49.6275C29.012 50.9236 28.1594 51.5766 26.6388 51.5766H23.9751V44.6087ZM26.2997 47.5419C27.1522 47.5419 27.4815 47.2301 27.4815 46.5187V46.4798C27.4815 45.8171 27.1038 45.5344 26.2804 45.5344H25.2342V47.5419H26.2997ZM26.4839 50.6508C27.3459 50.6508 27.743 50.2609 27.743 49.5398V49.5008C27.743 48.7797 27.3459 48.4191 26.3967 48.4191H25.2342V50.6508H26.4839Z" fill="#161615"/>
<path d="M32.0735 48.5555L29.7778 44.6087H31.2017L32.7611 47.4932L34.2818 44.6087H35.5411L33.3714 48.5652V51.5766H32.0735V48.5555Z" fill="#161615"/>
<path d="M40.395 44.6087H41.6929V51.5766H40.395V44.6087Z" fill="#161615"/>
<path d="M44.0957 44.6087H45.3839V47.5712H48.4932V44.6087H49.7912V51.5766H48.4932V48.6141H45.3839V51.5766H44.0957V44.6087Z" fill="#161615"/>
<path d="M51.6035 48.1365V48.0585C51.6035 45.9827 53.037 44.5014 55.0615 44.5014C56.5435 44.5014 57.8607 45.1835 58.0449 46.8501H56.7565C56.6016 45.9243 55.9817 45.5247 55.0809 45.5247C53.7248 45.5247 52.9402 46.5383 52.9402 48.0682V48.1462C52.9402 49.6372 53.628 50.6605 55.0809 50.6605C56.3788 50.6605 56.9116 49.8712 56.9503 48.9064H55.2067V47.9318H58.2191V48.5751C58.2191 50.5047 57.018 51.6741 55.0615 51.6741C52.8434 51.6741 51.6035 50.1928 51.6035 48.1365Z" fill="#161615"/>
<path d="M18.3185 47.7639H0.45459V48.4158H18.3185V47.7639Z" fill="#161615"/>
<path d="M81.5448 47.7639H63.897V48.4158H81.5448V47.7639Z" fill="#161615"/>
<path d="M60.647 15.3355H59.1851V0.612495L60.5066 0.628895L67.8086 11.2543V0.629295H69.2705V15.3351H67.949L60.6473 4.7101L60.647 15.3355Z" fill="#161615"/>
<path d="M43.9866 15.3355L40.3662 0.612495L42.7846 0.629295L45.3802 12.1252L48.0986 0.629695H49.256L51.7535 11.3234L54.1979 0.629695H55.5366L51.9162 15.3355H50.719L48.1532 4.3197L45.499 15.3355H43.9866Z" fill="#161615"/>
<path d="M16.3875 8.7113H17.4937L17.5104 8.7374L21.6859 15.3747H24.121L19.3079 8.3601L19.3878 8.3411C21.5711 7.8162 22.8236 6.3293 22.8236 4.2614C22.8585 3.02 22.2161 1.86589 21.1471 1.24759C20.0517 0.629295 19.035 0.629295 17.4959 0.629295H14.0601V15.3747H16.3875V8.7113ZM16.4005 1.7225H17.3611C17.7131 1.7225 18.077 1.7225 18.432 1.7576C18.7729 1.7856 19.103 1.87559 19.4119 2.02549C20.0187 2.35569 20.4089 3.3323 20.4089 4.5151C20.4089 6.6584 19.331 7.74559 17.2044 7.74559H16.4001L16.4005 1.7225Z" fill="#161615"/>
<path d="M9.48289 13.5736L10.1487 14.5565L10.09 14.586C8.99529 15.2204 7.74919 15.563 6.48669 15.576C4.61189 15.576 3.05269 14.8061 1.97779 13.349C0.99559 12.0183 0.45459 10.1429 0.45459 8.0679C0.45459 4.2655 2.41929 0.428297 6.80899 0.428297C6.84239 0.428297 6.87549 0.427597 6.90849 0.427597C7.99129 0.427597 9.07369 0.680797 10.044 1.1613L10.1019 1.1919L9.55009 2.2212L9.48249 2.1883C8.73729 1.8016 7.90029 1.5879 7.06079 1.5696C4.72329 1.5696 3.09099 4.2184 3.09099 8.0115C3.09099 12.4255 5.06529 14.4358 6.90259 14.4355C7.79709 14.3914 8.66519 14.1067 9.41009 13.6147L9.48289 13.5736Z" fill="#161615"/>
<path d="M32.09 15.5895C35.6855 15.5895 38.0088 12.5376 38.0088 7.8143C38.0088 5.2208 37.378 3.2572 36.1333 1.9772C35.1649 0.9812 33.8122 0.4328 32.325 0.4328C30.6972 0.4328 29.2182 1.097 28.1618 2.3026C26.9817 3.6494 26.3579 5.6175 26.3579 7.9936V8.0328C26.3579 12.6232 28.6077 15.5895 32.09 15.5895ZM28.9549 8.0418C28.9549 3.9207 30.1918 1.4602 32.2638 1.4602C34.3357 1.4602 35.4159 3.7212 35.4159 7.9981C35.4159 14.1837 32.7067 14.4967 32.1635 14.4967C30.6831 14.4967 28.9546 12.813 28.9546 8.0679L28.9549 8.0418Z" fill="#161615"/>
<path d="M81.5449 14.1683V15.3355H73.8296V0.612099L81.4495 0.629299V1.7747H76.1875V7.0174H81.1145V8.1714H76.1875V14.1684L81.5449 14.1683Z" fill="#161615"/>
<path d="M20.2304 23.3506C19.2044 22.6741 18.0678 22.6251 16.3174 22.6251H12.4468V37.3488H14.8047V30.8472H16.6609C20.3804 30.8472 21.7057 28.5735 21.7057 26.4451C21.7057 25.6591 21.5141 24.2118 20.2304 23.3506ZM16.1871 29.7148H14.8047V23.7183L16.3 23.7134C16.5993 23.7134 16.9101 23.7127 17.2182 23.7399C17.5547 23.7646 17.8814 23.8486 18.1889 23.9899C18.799 24.3041 19.1914 25.2743 19.1914 26.4623C19.1914 28.6202 18.1807 29.7148 16.1871 29.7148Z" fill="#161615"/>
<path d="M57.9887 23.5627L50.8749 36.1103H58.3756V37.3483H48.1294V36.433L55.2911 23.8123H48.5646V22.6246H57.9887V23.5627Z" fill="#161615"/>
<path d="M40.7744 22.6246H39.5772L34.4805 37.3483H35.9234L37.604 32.1793H41.6399L43.3625 37.3483H45.9246L40.7744 22.6246ZM38.1339 31.1519L39.7985 25.9205L41.4268 31.1519H38.1339Z" fill="#161615"/>
<path d="M27.0705 36.1637H32.2627V37.3483H24.7256V22.6246H27.0705V36.1637Z" fill="#161615"/>
<path d="M65.6554 22.6246L60.5586 37.348H62.0015L63.6821 32.1793H67.7177L69.4402 37.348H72.0027L66.8525 22.6246H65.6554ZM64.2124 31.1519L65.877 25.9205L67.5049 31.1519H64.2124Z" fill="#161615"/>
<path d="M74.6096 24.1971C74.6096 23.7619 74.4566 23.3909 74.1507 23.0842C73.8447 22.7778 73.4745 22.6243 73.0404 22.6243C72.609 22.6243 72.2413 22.7774 71.9365 23.0842C71.6305 23.392 71.4775 23.763 71.4775 24.1971C71.4775 24.6353 71.629 25.0085 71.9324 25.3164C72.2369 25.6257 72.6064 25.7804 73.0404 25.7804C73.4745 25.7804 73.8447 25.6257 74.1507 25.3164C74.4567 25.0071 74.6096 24.6342 74.6096 24.1971ZM73.04 25.5656C72.6658 25.5656 72.3475 25.4322 72.0858 25.1658C71.8251 24.8995 71.6951 24.577 71.6951 24.199C71.6951 23.8239 71.8262 23.5037 72.088 23.2388C72.3513 22.9725 72.6687 22.8391 73.0404 22.8391C73.4121 22.8391 73.7314 22.9725 73.9947 23.2388C74.2565 23.5037 74.3876 23.8239 74.3876 24.199C74.3876 24.577 74.2565 24.8995 73.9947 25.1658C73.7329 25.4322 73.4143 25.5656 73.04 25.5656ZM73.7233 24.9473C73.7203 24.9013 73.7192 24.8587 73.7192 24.8184V24.6917C73.7192 24.6043 73.688 24.515 73.6256 24.4235C73.5632 24.332 73.4648 24.2756 73.3304 24.2539C73.4366 24.2367 73.5194 24.2087 73.5792 24.1702C73.691 24.097 73.747 23.983 73.747 23.8284C73.747 23.6106 73.6583 23.4641 73.4801 23.3898C73.3805 23.3483 73.2239 23.3274 73.0103 23.3274H72.4081V25.059H72.7114V24.3779H72.9506C73.1113 24.3779 73.2238 24.3966 73.2881 24.4336C73.3961 24.4978 73.4504 24.6301 73.4504 24.8296V24.9667L73.4567 25.0224C73.4581 25.0295 73.4593 25.0358 73.4607 25.0418C73.4622 25.0474 73.4637 25.0534 73.4648 25.059H73.7489L73.7381 25.0377C73.7311 25.0235 73.7259 24.9928 73.7233 24.9473ZM73.2743 24.1242C73.2101 24.15 73.1136 24.1631 72.9851 24.1631H72.7111V23.5358H72.9702C73.1388 23.5358 73.261 23.5575 73.3375 23.6005C73.414 23.6434 73.4522 23.7279 73.4522 23.8541C73.4522 23.9871 73.3928 24.0771 73.2743 24.1242Z" fill="#161615"/>
</g>
</svg>
