<svg width="89" height="54" viewBox="0 0 89 54" fill="none" xmlns="http://www.w3.org/2000/svg">
<g clip-path="url(#clip0)">
<path d="M12.1635 46.7624V43.4414H10.8872V42.895H14.0799V43.4414H12.8036V46.7624H12.1635Z" fill="#002639"/>
<path d="M17.8334 46.2161V46.7624H15.0913V42.895H17.7947V43.4414H15.7254V44.4747H17.6418V45.017H15.7254V46.2161H17.8334Z" fill="#002639"/>
<path d="M19.0503 46.7624V42.895H19.6884V46.2161H21.5111V46.7624H19.0503Z" fill="#002639"/>
<path d="M27.1033 46.7624L26.7343 45.8007H25.0115L24.6425 46.7624H24.0044L25.5396 42.895H26.2389L27.7741 46.7624H27.1033ZM26.5304 45.2543L25.876 43.5314L25.2154 45.2543H26.5304Z" fill="#002639"/>
<path d="M30.1637 46.7624H29.4705L28.0332 42.895H28.7101L29.8497 46.038L30.9833 42.895H31.6051L30.1637 46.7624Z" fill="#002639"/>
<path d="M32.6084 46.7624V42.895H33.2465V46.7624H32.6084Z" fill="#002639"/>
<path d="M36.3781 46.7624H35.6849L34.2476 42.895H34.9244L36.0641 46.038L37.1976 42.895H37.8195L36.3781 46.7624Z" fill="#002639"/>
<path d="M40.5674 45.4875V44.9575H42.4328V45.4875H40.5674Z" fill="#002639"/>
<path d="M45.5991 46.7624V42.895H46.8917C47.1995 42.895 47.4829 42.9339 47.7398 43.0117C47.9967 43.0894 48.2169 43.206 48.4024 43.3616C48.5879 43.5191 48.7327 43.7176 48.8346 43.9591C48.9366 44.2005 48.9896 44.4829 48.9896 44.8062C48.9896 45.1152 48.9386 45.3935 48.8346 45.637C48.7327 45.8825 48.5879 46.0871 48.4024 46.2529C48.2169 46.4186 47.9967 46.5455 47.7398 46.6314C47.4829 46.7174 47.1995 46.7603 46.8917 46.7603H45.5991V46.7624ZM46.2311 46.2161H46.8631C47.3504 46.2161 47.7174 46.0892 47.962 45.8355C48.2067 45.5817 48.329 45.238 48.329 44.8082C48.329 44.3744 48.2067 44.0368 47.962 43.7995C47.7174 43.5621 47.3525 43.4434 46.8631 43.4434H46.2311V46.2161Z" fill="#002639"/>
<path d="M50.2334 46.7624V42.895H50.8715V46.7624H50.2334Z" fill="#002639"/>
<path d="M54.9612 46.7624L54.5922 45.8007H52.8694L52.5004 46.7624H51.8623L53.3975 42.895H54.0968L55.632 46.7624H54.9612ZM54.3904 45.2543L53.7359 43.5314L53.0754 45.2543H54.3904Z" fill="#002639"/>
<path d="M58.4289 46.7624L57.2281 43.3268V46.7624H56.6226V42.895H57.6786L58.7694 46.038L59.8479 42.895H60.8999V46.7624H60.2719V43.337L59.0772 46.7624H58.4289Z" fill="#002639"/>
<path d="M64.0724 46.8176C63.8074 46.8176 63.5586 46.7705 63.3242 46.6764C63.0897 46.5822 62.8838 46.4492 62.7105 46.2753C62.5352 46.1014 62.3965 45.8906 62.2946 45.641C62.1927 45.3913 62.1396 45.113 62.1396 44.8061C62.1396 44.4971 62.1927 44.2168 62.2966 43.9692C62.4006 43.7216 62.5413 43.5108 62.7187 43.3431C62.894 43.1732 63.0999 43.0423 63.3344 42.9502C63.5688 42.8581 63.8155 42.811 64.0724 42.811C64.3293 42.811 64.5739 42.8561 64.8063 42.9461C65.0388 43.0361 65.2447 43.1671 65.42 43.339C65.5953 43.5108 65.736 43.7196 65.842 43.9651C65.946 44.2127 65.999 44.491 65.999 44.8041C65.999 45.109 65.946 45.3872 65.842 45.6389C65.7381 45.8886 65.5974 46.1014 65.4241 46.2733C65.2508 46.4472 65.0449 46.5802 64.8104 46.6743C64.5739 46.7705 64.3293 46.8176 64.0724 46.8176ZM64.0724 46.2487C64.2518 46.2487 64.419 46.2139 64.5739 46.1443C64.7289 46.0748 64.8594 45.9766 64.9695 45.8517C65.0795 45.7269 65.1672 45.5755 65.2304 45.3995C65.2936 45.2235 65.3262 45.0251 65.3262 44.8082C65.3262 44.5913 65.2936 44.3948 65.2304 44.2168C65.1652 44.0408 65.0775 43.8894 64.9633 43.7666C64.8492 43.6439 64.7166 43.5477 64.5637 43.4822C64.4108 43.4167 64.2477 43.3819 64.0704 43.3819C63.8909 43.3819 63.7238 43.4147 63.5688 43.4822C63.4139 43.5477 63.2814 43.6439 63.1692 43.7666C63.0571 43.8894 62.9694 44.0408 62.9042 44.2168C62.841 44.3928 62.8084 44.5913 62.8084 44.8082C62.8084 45.021 62.841 45.2174 62.9042 45.3975C62.9674 45.5755 63.0571 45.729 63.1692 45.8538C63.2814 45.9786 63.4139 46.0768 63.5688 46.1464C63.7258 46.2139 63.893 46.2487 64.0724 46.2487Z" fill="#002639"/>
<path d="M69.6258 46.7624L67.8581 43.558V46.7624H67.2363V42.895H68.1334L69.8949 46.1158V42.895H70.5167V46.7624H69.6258Z" fill="#002639"/>
<path d="M71.9932 46.7624V42.895H73.2857C73.5936 42.895 73.877 42.9339 74.1339 43.0117C74.3908 43.0894 74.6109 43.206 74.7965 43.3616C74.982 43.5191 75.1267 43.7176 75.2287 43.9591C75.3306 44.2005 75.3836 44.4829 75.3836 44.8062C75.3836 45.1152 75.3327 45.3935 75.2287 45.637C75.1267 45.8825 74.982 46.0871 74.7965 46.2529C74.6109 46.4186 74.3908 46.5455 74.1339 46.6314C73.877 46.7174 73.5936 46.7603 73.2857 46.7603H71.9932V46.7624ZM72.6272 46.2161H73.2613C73.7485 46.2161 74.1155 46.0892 74.3602 45.8355C74.6048 45.5817 74.7271 45.238 74.7271 44.8082C74.7271 44.3744 74.6048 44.0368 74.3602 43.7995C74.1155 43.5621 73.7506 43.4434 73.2613 43.4434H72.6272V46.2161Z" fill="#002639"/>
<path d="M29.3218 53.9445V50.0771H30.6164C30.9242 50.0771 31.2076 50.116 31.4645 50.1938C31.7214 50.2715 31.9416 50.3882 32.1271 50.5437C32.3126 50.7012 32.4574 50.8997 32.5593 51.1412C32.6613 51.3826 32.7143 51.665 32.7143 51.9883C32.7143 52.2973 32.6633 52.5756 32.5593 52.8191C32.4574 53.0646 32.3126 53.2693 32.1271 53.435C31.9416 53.6008 31.7214 53.7276 31.4645 53.8136C31.2076 53.8995 30.9242 53.9425 30.6164 53.9425H29.3218V53.9445ZM29.9538 53.3982H30.5858C31.0731 53.3982 31.44 53.2713 31.6847 53.0176C31.9293 52.7638 32.0517 52.4201 32.0517 51.9904C32.0517 51.5566 31.9293 51.2189 31.6847 50.9816C31.44 50.7442 31.0751 50.6255 30.5858 50.6255H29.9538V53.3982Z" fill="#002639"/>
<path d="M33.9556 53.9445V50.0771H34.5937V53.9445H33.9556Z" fill="#002639"/>
<path d="M37.3523 53.9998C37.1464 53.9998 36.9527 53.9732 36.7692 53.922C36.5857 53.8709 36.4246 53.7911 36.288 53.6847C36.1494 53.5783 36.0393 53.4453 35.9516 53.2836C35.866 53.124 35.8151 52.9357 35.8008 52.7229H36.4165C36.443 52.9705 36.5449 53.1547 36.7243 53.2775C36.9037 53.4002 37.1137 53.4616 37.3523 53.4616C37.4664 53.4616 37.5745 53.4493 37.6805 53.4227C37.7845 53.3961 37.8762 53.3593 37.9537 53.3102C38.0312 53.2611 38.0923 53.2018 38.1413 53.1342C38.1882 53.0667 38.2126 52.9869 38.2126 52.8989C38.2126 52.7332 38.1474 52.6043 38.0149 52.5142C37.8823 52.4242 37.6948 52.3485 37.4542 52.2912L37.0465 52.1971C36.6795 52.1132 36.4063 51.9863 36.2289 51.8185C36.0515 51.6507 35.9618 51.4297 35.9618 51.1535C35.9618 50.9836 35.9985 50.8281 36.074 50.6828C36.1494 50.5396 36.2493 50.4168 36.3777 50.3145C36.5041 50.2143 36.653 50.1344 36.8242 50.0772C36.9955 50.0199 37.1769 49.9912 37.3727 49.9912C37.5643 49.9912 37.7437 50.0178 37.915 50.069C38.0862 50.1201 38.2351 50.1958 38.3615 50.2961C38.4879 50.3964 38.5918 50.5171 38.6734 50.6644C38.7549 50.8097 38.8018 50.9755 38.8161 51.1596H38.2045C38.182 50.9714 38.0964 50.8199 37.9455 50.7033C37.7947 50.5867 37.6051 50.5294 37.3727 50.5294C37.1627 50.5294 36.9812 50.5846 36.8242 50.6951C36.6672 50.8056 36.5898 50.9407 36.5898 51.0982C36.5898 51.2353 36.6407 51.3417 36.7447 51.4215C36.8467 51.5013 37.0057 51.5648 37.2177 51.6118L37.6846 51.7223C38.0373 51.8042 38.3207 51.931 38.5347 52.1029C38.7488 52.2769 38.8569 52.5183 38.8569 52.8273C38.8569 53.0217 38.8141 53.1936 38.7284 53.3409C38.6428 53.4882 38.5286 53.611 38.388 53.7092C38.2473 53.8074 38.0862 53.8791 37.9068 53.9282C37.7274 53.9773 37.5398 53.9998 37.3523 53.9998Z" fill="#002639"/>
<path d="M40.8915 53.9445V50.6235H39.6152V50.0771H42.8079V50.6235H41.5317V53.9445H40.8915Z" fill="#002639"/>
<path d="M45.2953 52.3648H44.4431V53.9445H43.8213V50.0771H45.4278C45.8764 50.0771 46.2066 50.1795 46.4248 50.38C46.6409 50.5826 46.7489 50.8445 46.7489 51.1637C46.7489 51.4358 46.6756 51.6487 46.5308 51.798C46.386 51.9494 46.2168 52.0477 46.0211 52.0968V52.107C46.172 52.1438 46.2963 52.2216 46.3983 52.3423C46.4982 52.461 46.5818 52.6615 46.649 52.9419L46.8754 53.9425H46.2209L46.0068 52.9746C45.9559 52.7434 45.8764 52.5817 45.7703 52.4937C45.6623 52.4098 45.5053 52.3648 45.2953 52.3648ZM44.4431 50.6255V51.8185H45.3728C45.6215 51.8185 45.805 51.7571 45.9233 51.6364C46.0415 51.5156 46.0986 51.3704 46.0986 51.2005C46.0986 51.0348 46.0395 50.8977 45.9192 50.7892C45.7989 50.6808 45.6236 50.6255 45.3871 50.6255H44.4431Z" fill="#002639"/>
<path d="M48.1089 53.9445V50.0771H48.747V53.9445H48.1089Z" fill="#002639"/>
<path d="M51.8396 54C51.5909 54 51.3524 53.9529 51.1261 53.8629C50.8998 53.7708 50.702 53.6378 50.5348 53.4659C50.3656 53.292 50.2311 53.0812 50.1332 52.8316C50.0333 52.582 49.9844 52.3016 49.9844 51.9926C49.9844 51.6837 50.0353 51.4033 50.1352 51.1557C50.2351 50.9081 50.3717 50.6974 50.543 50.5296C50.7143 50.3597 50.912 50.2288 51.1383 50.1367C51.3646 50.0446 51.597 49.9976 51.8396 49.9976C52.068 49.9976 52.28 50.0283 52.4778 50.0917C52.6755 50.1551 52.8509 50.2431 53.0038 50.3597C53.1567 50.4764 53.2831 50.6176 53.383 50.7854C53.4829 50.9532 53.5481 51.1414 53.5787 51.3522H52.9406C52.8815 51.1025 52.753 50.9081 52.5552 50.7731C52.3575 50.638 52.119 50.5685 51.8396 50.5685C51.6745 50.5685 51.5196 50.6032 51.3748 50.6708C51.2301 50.7383 51.1037 50.8345 50.9976 50.9572C50.8916 51.08 50.808 51.2294 50.7469 51.4054C50.6857 51.5813 50.6551 51.7757 50.6551 51.9947C50.6551 52.2075 50.6857 52.4039 50.7469 52.5799C50.808 52.7559 50.8916 52.9094 50.9976 53.0362C51.1037 53.1631 51.2301 53.2613 51.3748 53.3309C51.5196 53.4004 51.6745 53.4352 51.8396 53.4352C52.119 53.4352 52.3534 53.3616 52.5471 53.2122C52.7408 53.0628 52.8733 52.8623 52.9467 52.6126H53.5848C53.5481 52.8234 53.4788 53.0137 53.3789 53.1876C53.277 53.3616 53.1526 53.5068 53.0017 53.6276C52.8509 53.7483 52.6776 53.8404 52.4798 53.9059C52.28 53.9673 52.068 54 51.8396 54Z" fill="#002639"/>
<path d="M55.5951 53.9445V50.6235H54.3188V50.0771H57.5116V50.6235H56.2353V53.9445H55.5951Z" fill="#002639"/>
<path d="M25.7494 8.92365V4.76775H21.731V8.92365H19.894V0.192383H21.731V4.10068H25.7494L25.7575 0.196475L27.5781 0.192383V8.92365H25.7494Z" fill="#002639"/>
<path d="M45.9087 0.963811V8.92365H44.0514V0.963811H41.5967V0.192383H48.3633V0.963811H45.9087Z" fill="#002639"/>
<path d="M51.5459 8.92365V0.192383H57.1382V0.963811H53.5459V4.10068H56.549V4.76775H53.5459V8.05195H57.2014V8.92365H51.5459Z" fill="#002639"/>
<path d="M61.0527 8.92365V0.192383H63.065V8.05195H66.9509V8.92365H61.0527Z" fill="#002639"/>
<path d="M35.126 9.10368C32.286 9.10368 30.5103 7.33164 30.5103 4.55286C30.5123 1.77203 32.286 0 35.126 0C38.0414 0 39.754 1.73316 39.754 4.55081C39.754 7.29276 37.9803 9.10368 35.126 9.10368ZM35.126 0.53202C33.4175 0.53202 32.4308 1.90709 32.4308 4.55081C32.4308 7.12906 33.4175 8.56142 35.126 8.56142C36.8345 8.56142 37.8335 7.14339 37.8335 4.55081C37.8355 1.98689 36.8365 0.53202 35.126 0.53202Z" fill="#002639"/>
<path d="M19.7026 27.9045V17.2231H21.0441V32.4798H19.4396L9.94922 21.5571C9.8065 21.3934 9.63321 21.199 9.43341 20.9452H9.30497V32.4798H7.96143V17.2231H10.3162L19.036 27.2292C19.1828 27.397 19.3683 27.6037 19.5722 27.9045H19.7026Z" fill="#002639"/>
<path d="M31.8454 32.4778H25.8188V17.2231H31.8454C37.2237 17.2231 40.1676 19.2551 40.1676 24.5384C40.1697 30.2597 35.8026 32.4778 31.8454 32.4778ZM31.4682 18.103C30.6242 18.103 28.9341 18.103 28.9341 18.103V31.5734C28.9341 31.5734 30.2674 31.5734 31.0666 31.5734C33.9168 31.5734 36.7792 30.0919 36.7792 24.5364C36.7792 19.6541 34.3572 18.103 31.4682 18.103Z" fill="#002639"/>
<path d="M3.11115 17.2231H0V32.4798H3.11115V17.2231Z" fill="#002639"/>
<path d="M47.6072 17.2231H44.4961V32.4798H47.6072V17.2231Z" fill="#002639"/>
<path d="M78.9246 32.8135C73.9623 32.8135 70.8613 29.7175 70.8613 24.8618C70.8613 20.0061 73.9623 16.9102 78.9246 16.9102C84.0195 16.9102 87.0083 19.9386 87.0083 24.8618C87.0103 29.65 83.9094 32.8135 78.9246 32.8135ZM78.9246 17.8412C75.9399 17.8412 74.2171 20.2435 74.2171 24.8639C74.2171 29.3676 75.9399 31.8701 78.9246 31.8701C81.9094 31.8701 83.6545 29.3922 83.6545 24.8639C83.6566 20.3806 81.9094 17.8412 78.9246 17.8412Z" fill="#002639"/>
<path d="M63.8374 25.9362V31.2052C63.5682 31.375 62.6365 31.8764 60.9974 31.8825C57.242 31.8968 55.348 29.0812 55.3622 24.8373C55.3765 20.5157 58.1452 17.8986 60.9484 17.874C62.8975 17.8556 64.7426 18.4572 66.0046 20.1617H66.0759C66.2166 19.2368 66.6244 18.2342 66.6244 18.2342C66.6244 18.2342 64.7038 16.9082 60.9382 16.9082C55.6497 16.9082 51.9575 20.4686 51.9575 24.8599C51.9575 30.4338 55.9372 32.8115 61.0096 32.8115C63.8659 32.8115 66.9506 31.8375 66.9506 31.8375V25.9341H63.8374V25.9362Z" fill="#002639"/>
<path d="M87.0103 17.9087C87.0103 17.3562 87.4486 16.9102 88.0052 16.9102C88.5699 16.9102 89.0001 17.3501 89.0001 17.9046C89.0001 18.4673 88.5617 18.8991 88.0052 18.8991C87.4527 18.897 87.0103 18.4714 87.0103 17.9087ZM88.8207 17.9046C88.8207 17.4135 88.4802 17.0718 88.0052 17.0718C87.5301 17.0718 87.1897 17.4176 87.1897 17.9087C87.1897 18.4039 87.5485 18.7354 88.0052 18.7354C88.4659 18.7354 88.8207 18.3937 88.8207 17.9046ZM87.6647 17.4013H88.0092C88.2376 17.4013 88.3864 17.4954 88.3864 17.698V17.702C88.3864 17.8514 88.3008 17.9312 88.1846 17.9681L88.4435 18.3855H88.2192L87.9827 18.0028H87.8788V18.3855H87.6627V17.4013H87.6647ZM88.0052 17.8555C88.1173 17.8555 88.1764 17.8064 88.1764 17.7123V17.7082C88.1764 17.6038 88.1132 17.569 88.0052 17.569H87.8788V17.8576H88.0052V17.8555Z" fill="#002639"/>
</g>
<defs>
<clipPath id="clip0">
<rect width="89" height="54" fill="white"/>
</clipPath>
</defs>
</svg>
