<svg width="58" height="58" viewBox="0 0 58 58" fill="none" xmlns="http://www.w3.org/2000/svg">
<mask id="mask0_1_110" style="mask-type:luminance" maskUnits="userSpaceOnUse" x="0" y="0" width="58" height="58">
<path d="M57.8571 0H0V57.8571H57.8571V0Z" fill="white"/>
</mask>
<g mask="url(#mask0_1_110)">
<g filter="url(#filter0_d_1_110)">
<path d="M0 0V57.8571H57.8571V0H0ZM56.1396 56.1396H1.7175V1.7175H56.1396V56.1396Z" fill="#F8E9D7"/>
<path d="M56.1395 1.71748H1.71732V56.1396H56.1395V1.71748Z" fill="#677849"/>
<path d="M7.86644 16.8337L12.9857 29.9105H12.8004L17.8827 16.8337H18.2909L12.8748 30.4489L7.45874 16.8337H7.86644Z" fill="#F8E9D7"/>
<path d="M21.4999 16.8337H29.2721V17.1862H21.8706V23.1032H28.5483V23.4557H21.8706V29.5028H29.5314V29.8553H21.4999V16.8337Z" fill="#F8E9D7"/>
<path d="M35.8752 16.8337C36.2459 16.8337 36.6509 16.8959 37.0902 17.0191C37.529 17.1428 37.9436 17.3411 38.3331 17.6127C38.7225 17.8848 39.0407 18.2405 39.2882 18.6792C39.5352 19.1186 39.659 19.6596 39.659 20.3025C39.659 20.7728 39.585 21.2271 39.4361 21.6659C39.2877 22.1052 39.0558 22.4978 38.7408 22.8439C38.4252 23.1905 38.0143 23.4653 37.507 23.6694C36.9997 23.8735 36.3756 23.9754 35.6336 23.9754H33.5748V29.8553H33.2042V16.8337H35.8752ZM35.5784 23.6228C36.3204 23.6228 36.9295 23.5243 37.4057 23.3261C37.8815 23.1284 38.2559 22.8685 38.528 22.5471C38.7997 22.2257 38.9947 21.87 39.1125 21.4805C39.2299 21.091 39.2888 20.7048 39.2888 20.3212C39.2888 19.8637 39.1988 19.44 39.0198 19.0505C38.8404 18.661 38.5961 18.3273 38.287 18.0487C37.9779 17.7707 37.6195 17.5569 37.2113 17.4086C36.8031 17.2601 36.3643 17.1862 35.8945 17.1862H33.5759V23.6228H35.5784ZM37.2847 23.6411L41.0127 29.8548H40.5863L36.8577 23.6411H37.2847Z" fill="#F8E9D7"/>
<path d="M41.8294 16.8337H50.2878V17.1862H46.2442V29.8553H45.8735V17.1862H41.8299L41.8294 16.8337Z" fill="#F8E9D7"/>
<path d="M17.214 38.3855H8.06085V38.5001H17.214V38.3855Z" fill="#F8E9D7"/>
<path d="M49.796 38.3855H40.6429V38.5001H49.796V38.3855Z" fill="#F8E9D7"/>
<path d="M27.8291 38.0389C27.8752 37.9928 27.8891 37.9248 27.8666 37.8573C27.8575 37.8305 27.843 37.8053 27.8216 37.7801C27.7959 37.7501 27.7659 37.7292 27.7327 37.718L27.7134 37.7131C27.6502 37.7019 27.5859 37.6966 27.5248 37.6966C27.3416 37.6933 27.1589 37.6917 26.9827 37.6917L27.0957 37.4914L27.1128 37.456V37.4528C27.1236 37.4319 27.1348 37.411 27.1466 37.3901C27.2238 37.2455 27.303 37.1094 27.3818 36.9867C27.4375 36.9026 27.489 36.8126 27.5356 36.7156C27.5779 36.6214 27.6298 36.5292 27.6893 36.4424C27.7418 36.3653 27.8114 36.3042 27.9025 36.2544L27.9073 36.2517C27.9432 36.2303 27.9727 36.1992 27.9957 36.1601C28.0107 36.1344 28.023 36.1065 28.0327 36.0771C28.0386 36.0642 28.0434 36.0508 28.0477 36.0374C28.0595 36.0139 28.0697 35.9914 28.0788 35.9705C28.1232 35.8778 28.1629 35.7808 28.1977 35.6806C28.2003 35.6721 28.2052 35.6629 28.2132 35.6507C28.2475 35.5965 28.2673 35.5419 28.2727 35.4883C28.277 35.445 28.2711 35.3373 28.1269 35.2698L28.1152 35.265C28.0187 35.2306 27.9271 35.2494 27.8639 35.3164C27.8286 35.3539 27.798 35.3983 27.7723 35.4498L27.768 35.4599C27.7659 35.4658 27.7632 35.4701 27.7606 35.4739L27.753 35.4851C27.6025 35.7337 27.4509 35.9882 27.303 36.2415C27.1552 36.4885 27.0068 36.7333 26.8568 36.9808C26.8241 37.0392 26.7946 37.1013 26.77 37.1646C26.7593 37.1913 26.7465 37.2181 26.7325 37.2433L26.7282 37.2519C26.7121 37.2862 26.6934 37.3189 26.6725 37.3478L26.4732 37.6858C26.3881 37.6837 26.3034 37.6831 26.2176 37.6831H26.1759L26.1625 37.6858C26.1625 37.6858 26.1604 37.6858 26.1561 37.6853L25.6482 37.6831C25.2673 37.6863 24.8789 37.695 24.4922 37.7078C24.3443 37.7142 24.1953 37.7191 24.0534 37.7223C24.04 37.7223 24.0255 37.7239 24.011 37.7271H24.0089C23.995 37.7271 23.9473 37.7287 23.8648 37.7319C23.785 37.7351 23.7003 37.7394 23.6109 37.7442C23.5247 37.749 23.4593 37.7512 23.4159 37.7512H23.3778L23.4309 37.6553C23.5803 37.3692 23.7748 37.021 24.0084 36.6208C24.2414 36.2217 24.4643 35.8542 24.6705 35.5285C24.7841 35.3496 24.866 35.2264 24.925 35.1417C24.948 35.1599 24.9796 35.1766 25.0219 35.1856C25.1334 35.206 25.1955 35.1589 25.2223 35.1289C25.2475 35.101 25.2652 35.0699 25.2753 35.0362C25.2802 35.0255 25.2839 35.0137 25.2866 35.0019C25.316 34.8862 25.3198 34.7673 25.2973 34.6531C25.2829 34.5594 25.2271 34.4913 25.1436 34.4662C25.082 34.4479 25.0145 34.4523 24.9438 34.4796L24.9368 34.4823C24.8532 34.5198 24.7841 34.5733 24.7316 34.6408C24.723 34.6499 24.7155 34.6596 24.7075 34.6708C24.5526 34.8497 24.4182 35.0416 24.3084 35.2371C23.8064 36.0717 23.3146 36.9246 22.8459 37.7731C22.1784 37.7978 21.5087 37.8535 20.853 37.9398C20.5595 37.9804 20.2702 38.049 19.998 38.1417C19.8411 38.1894 19.698 38.2633 19.5732 38.3624L19.5668 38.3678C19.4435 38.4792 19.3847 38.5987 19.3921 38.7229C19.4007 38.8596 19.4901 38.9881 19.6584 39.106L19.6653 39.1103C19.7436 39.158 19.825 39.203 19.9075 39.2442L19.9144 39.2475C19.9295 39.2539 19.9439 39.2619 19.9573 39.2705L19.9718 39.2785C20.0141 39.2999 20.0537 39.3117 20.0928 39.3144C20.1635 39.3203 20.2541 39.2806 20.2771 39.1526L20.2873 39.0969L20.2546 39.0508C20.2075 38.9849 20.1464 38.9367 20.0719 38.9073C20.0591 38.9003 20.0452 38.8923 20.0291 38.8815C19.9975 38.8617 19.9637 38.8441 19.9268 38.8274C19.8925 38.8129 19.8609 38.7937 19.833 38.7706C19.8255 38.7647 19.8159 38.7535 19.8095 38.7278C19.8095 38.6988 19.818 38.6908 19.8207 38.6887C19.8491 38.6625 19.8834 38.6405 19.9225 38.6239L19.9428 38.6126C19.9488 38.6083 19.9562 38.6046 19.961 38.6019C20.1882 38.4931 20.4346 38.4187 20.695 38.3812C21.3245 38.2794 21.9716 38.2151 22.6209 38.1883L22.3525 38.6737V38.6908C22.3466 38.7004 22.3412 38.7085 22.337 38.7139C22.3203 38.7348 22.3053 38.7562 22.2925 38.7776L22.2893 38.783C21.9534 39.4055 21.6159 40.0296 21.2768 40.6553C21.1021 40.9778 20.9264 41.3024 20.7485 41.6281L20.7421 41.6421C20.7411 41.6447 20.7384 41.6501 20.7336 41.656C20.7111 41.6828 20.6923 41.7112 20.6768 41.7396C20.6452 41.798 20.6414 41.8617 20.6677 41.9179C20.7041 41.9983 20.7903 42.0272 20.8214 42.0375C20.9629 42.0819 21.04 42.0235 21.0738 41.9849C21.1075 41.9458 21.1326 41.8971 21.1477 41.8398C21.1498 41.8344 21.1509 41.8323 21.1509 41.8323L21.1616 41.8157C21.55 41.0978 21.9389 40.3778 22.3273 39.6567C22.4591 39.4135 22.5919 39.1681 22.7269 38.9217C22.7441 38.8907 22.758 38.8633 22.7693 38.8381L22.9611 38.505L22.9654 38.4899C22.9707 38.4722 22.9782 38.4567 22.9889 38.4428L23.1459 38.1658L23.297 38.1562L23.7903 38.1363H23.8101C24.0801 38.1267 24.3555 38.1181 24.6304 38.1117C24.9769 38.0983 25.3187 38.0865 25.6429 38.0775H26.1721C26.1984 38.0791 26.2246 38.0807 26.2514 38.0817C26.2353 38.1117 26.2198 38.1428 26.2054 38.1739C26.133 38.3057 26.0618 38.4401 25.9943 38.5719C25.8298 38.8815 25.6648 39.189 25.4987 39.4987C25.4881 39.5207 25.4768 39.5442 25.4661 39.5699L25.4382 39.6348C25.2518 39.9948 25.0953 40.2953 24.9689 40.5364C24.8419 40.778 24.7246 41.0019 24.6159 41.2076C24.5098 41.4091 24.4348 41.5451 24.393 41.6121L24.3855 41.6238L24.3807 41.6373C24.363 41.686 24.3475 41.7353 24.3336 41.784L24.3309 41.7942C24.3228 41.835 24.326 41.8767 24.3411 41.9179C24.3545 41.9555 24.3861 42.0063 24.4589 42.0375L24.475 42.0433C24.4986 42.0497 24.5216 42.0535 24.5441 42.0535C24.5698 42.0535 24.595 42.0492 24.6196 42.0401C24.6646 42.0235 24.7021 41.9935 24.7278 41.9528C24.7798 41.8762 24.8259 41.7964 24.8623 41.7203C25.0171 41.4273 25.1704 41.1353 25.322 40.846C25.8062 39.9294 26.2884 39.0016 26.7555 38.0871H26.8235C26.9018 38.0871 26.9816 38.0887 27.0604 38.0919H27.6931C27.7466 38.0929 27.7943 38.0737 27.8291 38.0389Z" fill="#F8E9D7"/>
<path d="M38.3667 35.1633C38.236 35.0432 38.0485 35.0663 37.8064 35.2335C37.5616 35.414 37.3425 35.6208 37.1576 35.8463C36.5678 36.5224 36.0616 37.2542 35.655 38.017C35.64 38.0427 35.6271 38.069 35.6159 38.0947C35.5794 38.1638 35.5382 38.2323 35.4926 38.2993C35.4546 38.3556 35.4021 38.4054 35.3368 38.4477C35.2923 38.4729 35.2553 38.5056 35.2264 38.5452C35.2093 38.5688 35.1985 38.5945 35.1932 38.6207C35.1091 38.6668 35.0041 38.7252 34.8718 38.7986C34.5026 39.0038 34.1094 39.1527 33.7028 39.2417C33.3069 39.3285 32.9919 39.3354 32.7674 39.2626C32.5414 39.1892 32.5307 39.0868 32.5532 38.9867L32.5564 38.9722V38.9577C32.5564 38.9283 32.5564 38.8881 32.6523 38.8576C32.9357 38.7633 33.1795 38.6186 33.3771 38.429C33.472 38.3454 33.54 38.2463 33.5807 38.1333L33.5845 38.122C33.616 37.9999 33.5866 37.8874 33.5009 37.8043C33.4216 37.7277 33.3134 37.6934 33.1757 37.7031C33.045 37.7148 32.9293 37.7556 32.8323 37.8236C32.4974 38.0341 32.2757 38.3122 32.1702 38.6518L31.8224 38.9593C31.717 39.0482 31.6098 39.1388 31.501 39.2315L31.4507 39.2813C31.2541 39.4591 31.0398 39.6279 30.8127 39.7827H30.8057L30.7698 39.81C30.6712 39.8856 30.556 39.9429 30.4307 39.9799C30.3723 39.9959 30.353 39.9868 30.353 39.9868C30.3514 39.9852 30.3455 39.9767 30.3412 39.9574C30.3289 39.8566 30.3407 39.7623 30.3792 39.6665C30.5073 39.3236 30.6712 38.9894 30.8641 38.676C30.8909 38.6358 30.9241 38.5971 30.9626 38.5613C31.3591 38.1911 31.7368 37.7984 32.0839 37.395C32.1873 37.2761 32.2708 37.1899 32.3325 37.1384C32.3801 37.0988 32.438 37.0758 32.5098 37.0671C32.6014 37.0565 32.7466 37.0506 32.941 37.0506C33.1521 37.0506 33.3648 37.042 33.5721 37.0254C33.6289 37.0216 33.6851 37.0131 33.7393 36.9996C33.8159 36.9804 33.8791 36.9381 33.9278 36.8733L33.9353 36.862C33.9846 36.7795 33.9787 36.689 33.9182 36.6182C33.8577 36.5443 33.7661 36.5176 33.6723 36.5465L33.6621 36.5502C33.5443 36.5973 33.4226 36.6252 33.301 36.6322C33.1687 36.6402 33.0321 36.6423 32.895 36.6391C32.8376 36.6375 32.7803 36.637 32.723 36.6375C32.7412 36.614 32.7605 36.5893 32.7809 36.5631C32.8661 36.4517 32.9566 36.3349 33.0514 36.2138L33.3032 35.8929L33.3085 35.886C33.3562 35.8169 33.3953 35.7423 33.4248 35.6658C33.4676 35.5726 33.4424 35.4718 33.3578 35.4011L33.3407 35.3893C33.2309 35.3234 33.1361 35.3406 33.076 35.3658C32.9759 35.4081 32.8875 35.4654 32.8114 35.5377L32.7905 35.5586C32.6298 35.6963 32.4605 35.864 32.288 36.0568C32.1166 36.2481 31.9623 36.4254 31.83 36.5845C31.7764 36.6493 31.7009 36.6793 31.5889 36.6793C31.0253 36.6922 30.4543 36.7125 29.8896 36.7388C29.7209 36.7489 29.5499 36.7656 29.3828 36.7886C29.2596 36.8009 29.1493 36.8406 29.0555 36.9054L29.0411 36.9172C28.9419 37.0094 28.9339 37.1347 29.0207 37.236L29.0351 37.2504C29.1021 37.3077 29.1674 37.312 29.2103 37.3061C29.2623 37.2986 29.3089 37.274 29.3458 37.2338C29.3641 37.2188 29.385 37.2081 29.4096 37.2027C29.4514 37.1931 29.4959 37.185 29.5414 37.1791L29.5494 37.1786C30.1623 37.1245 30.7848 37.0967 31.4025 37.095C31.3692 37.139 31.3345 37.184 31.298 37.2311C31.0494 37.5589 30.8143 37.8986 30.5978 38.2409C30.5394 38.3331 30.4837 38.4263 30.4291 38.5211C30.4076 38.5296 30.3862 38.5377 30.3643 38.5473L30.3203 38.5651C29.9496 38.7038 29.5591 38.8163 29.1589 38.9004L29.1514 38.902C29.0785 38.9218 29.0057 38.9309 28.9344 38.9293C28.8873 38.9282 28.8412 38.9041 28.792 38.8522C28.7486 38.8088 28.6912 38.7809 28.6264 38.7723C28.6028 38.7691 28.5798 38.7686 28.5573 38.7713C28.5776 38.7498 28.5996 38.7306 28.6226 38.7129C28.6382 38.7011 28.6607 38.6936 28.6843 38.6904C28.7523 38.6845 28.8069 38.6614 28.846 38.6218C28.8926 38.5752 28.9226 38.4911 28.8685 38.393L28.8648 38.3866C28.8278 38.3271 28.7721 38.2902 28.7041 38.2784C28.6575 38.271 28.6103 38.272 28.5589 38.2838C28.478 38.3052 28.4068 38.3406 28.3478 38.3888C28.2975 38.4301 28.2509 38.4756 28.2112 38.5222C27.7671 39.0241 27.4677 39.592 27.3214 40.2118C27.3128 40.2509 27.3086 40.2873 27.3086 40.32V40.3447C27.3086 40.417 27.3182 40.4845 27.3369 40.5451C27.3621 40.6265 27.4211 40.6934 27.5111 40.7433L27.5164 40.746C27.5807 40.7781 27.645 40.7941 27.7076 40.7941C27.7377 40.7941 27.7671 40.7904 27.7966 40.7829C27.8695 40.7647 27.9386 40.7352 27.9996 40.6967C28.1035 40.6356 28.1983 40.5649 28.2798 40.4866C28.6039 40.1872 28.8198 39.8325 28.921 39.4334L28.9237 39.419C28.928 39.3868 28.9339 39.3461 29.0427 39.3359C29.2934 39.3092 29.5371 39.2609 29.7675 39.1929C29.8912 39.1564 30.015 39.1173 30.1382 39.0767C30.1002 39.1575 30.0626 39.239 30.0278 39.3204C29.9421 39.4998 29.895 39.69 29.8874 39.8845V39.8915L29.888 39.8984C29.9014 40.1057 29.9721 40.2531 30.097 40.3361C30.1698 40.3843 30.2555 40.4084 30.3562 40.4084C30.4489 40.4084 30.5544 40.3881 30.6733 40.3468L30.6814 40.3436C30.9311 40.2396 31.1534 40.102 31.3377 39.9381C31.5611 39.7543 31.7866 39.5641 32.0073 39.3729C32.0496 39.3359 32.0925 39.2995 32.1358 39.2626C32.176 39.3906 32.2537 39.5031 32.3689 39.5963C32.5109 39.7104 32.7401 39.7671 33.0654 39.7671C33.2201 39.7671 33.3974 39.7543 33.5962 39.7286C34.0532 39.6697 34.5562 39.4817 35.0957 39.1704C35.0298 39.3182 34.965 39.4698 34.9023 39.6215L34.9007 39.6257C34.6607 40.2654 34.5037 40.92 34.4335 41.572C34.4239 41.6706 34.4405 41.7547 34.4807 41.82C34.5332 41.91 34.6162 41.9583 34.7159 41.9583C34.7432 41.9583 34.7721 41.9545 34.8021 41.947L34.8155 41.9427C34.9441 41.8961 34.958 41.8045 34.958 41.7675C34.958 41.7209 34.9409 41.6732 34.9076 41.6261C34.8953 41.6025 34.8889 41.5811 34.8889 41.5602C34.8889 41.5238 34.8927 41.4868 34.9007 41.4498L34.912 41.3834C35.0475 40.5188 35.3191 39.6745 35.7193 38.8736L35.7225 38.8666C35.8049 38.6744 35.9378 38.5061 36.1162 38.3663C36.3701 38.1702 36.5984 37.9506 36.7917 37.7164C37.2894 37.1497 37.7624 36.5567 38.1975 35.9529C38.2703 35.8522 38.3352 35.7467 38.3919 35.6374L38.3989 35.6239C38.4353 35.5656 38.4605 35.5029 38.4728 35.4376C38.4851 35.3701 38.4782 35.2672 38.3667 35.1633ZM32.6983 38.3824C32.7246 38.3287 32.7594 38.2843 32.8007 38.2458C32.8414 38.2072 32.8891 38.175 32.9426 38.1493C32.9973 38.1246 33.0573 38.1048 33.1339 38.1021C33.1301 38.1788 33.1098 38.2382 33.0846 38.2924C33.0583 38.3459 33.0252 38.3925 32.986 38.4332C32.9469 38.474 32.9019 38.5088 32.8484 38.534C32.7943 38.5592 32.7337 38.5779 32.6533 38.5768C32.6523 38.4965 32.6721 38.4359 32.6983 38.3824ZM33.1505 35.6266C33.1505 35.6266 33.1494 35.6293 33.1483 35.6304L33.1467 35.6282C33.1467 35.6282 33.1489 35.6272 33.1505 35.6266ZM28.4946 39.307C28.3907 39.69 28.1657 40.0227 27.8255 40.2949H27.818L27.78 40.328C27.7751 40.3323 27.7703 40.3361 27.765 40.3399V40.3216C27.7692 40.3104 27.7719 40.2992 27.7735 40.2868C27.8764 39.8465 28.0644 39.4345 28.3333 39.0579C28.3441 39.1013 28.3703 39.1554 28.432 39.2047L28.4394 39.21C28.5069 39.2572 28.4995 39.2882 28.4946 39.307ZM37.6896 36.0702C37.53 36.3097 37.3628 36.5432 37.1887 36.772C37.0151 37.0007 36.8351 37.2247 36.6439 37.4401C36.4532 37.6559 36.2549 37.8659 36.0343 38.0582C36.1633 37.7952 36.3155 37.5499 36.4746 37.3099C36.6337 37.0698 36.8036 36.8384 36.9798 36.6113C37.156 36.3847 37.3387 36.1624 37.5289 35.9465C37.7207 35.7317 37.9173 35.5206 38.1337 35.3245C38.0009 35.5848 37.8482 35.8297 37.6896 36.0702Z" fill="#F8E9D7"/>
</g>
</g>
<defs>
<filter id="filter0_d_1_110" x="-2.57143" y="-1.28571" width="63" height="63" filterUnits="userSpaceOnUse" color-interpolation-filters="sRGB">
<feFlood flood-opacity="0" result="BackgroundImageFix"/>
<feColorMatrix in="SourceAlpha" type="matrix" values="0 0 0 0 0 0 0 0 0 0 0 0 0 0 0 0 0 0 127 0" result="hardAlpha"/>
<feOffset dy="1.28571"/>
<feGaussianBlur stdDeviation="1.28571"/>
<feColorMatrix type="matrix" values="0 0 0 0 0 0 0 0 0 0 0 0 0 0 0 0 0 0 0.25 0"/>
<feBlend mode="normal" in2="BackgroundImageFix" result="effect1_dropShadow_1_110"/>
<feBlend mode="normal" in="SourceGraphic" in2="effect1_dropShadow_1_110" result="shape"/>
</filter>
</defs>
</svg>
