<svg id="Layer_1" data-name="Layer 1" xmlns="http://www.w3.org/2000/svg" viewBox="0 0 198.49 74.1"><defs><style>.cls-1{fill:#e94d29;}.cls-2{fill:#054422;}</style></defs><title>לוגו אתר האדר</title><path class="cls-1" d="M17.94,43.93l.11-2c.38,0,.78.06,1.15.06,1.89,0,2.35-1.06,2.35-3V31.11H18.63v-2H33.42V43.92h-2l0-12.81H23.55v8.08c0,3.27-1.31,4.82-4.18,4.82a10.38,10.38,0,0,1-1.44-.09Z"/><path class="cls-1" d="M39.27,31.12H36.54v-2h4.73V43.93h-2V31.12Z"/><path class="cls-1" d="M44.4,44l.11-2c.46,0,.86.06,1.26.06,2.3,0,2.78-1.06,2.78-2.92v-8H45.14v-2h5.42V39.23c0,3.24-1.38,4.79-4.64,4.79A13.31,13.31,0,0,1,44.4,44Z"/><path class="cls-1" d="M56.21,31.12H53.48v-2h4.73V43.93h-2V31.12Z"/><path class="cls-1" d="M65.9,43.53l4.52-12.41H61.34V25.87h2v3.24h9.49V30.2L68,43.93H65.9v-.4Z"/><path class="cls-1" d="M82.35,44l.14-2a10.07,10.07,0,0,0,1.2.08c3.36,0,4.36-3,4.36-5.93,0-3.53-1.75-5.22-4.21-5.22-2.81,0-4.16,2.18-4.62,5.7l-1,7.34H76.12l1.47-9.86a15.87,15.87,0,0,0-2.18-4.55v-.4H77.5a12.44,12.44,0,0,1,1.55,3,5.4,5.4,0,0,1,5.07-3.27c3.21,0,5.88,2,5.91,7.16,0,3.79-1.38,8-6.23,8-.48,0-.94-.06-1.46-.09Z"/><path class="cls-1" d="M6.22,54.7h7.59c3.39,0,4.88,1.2,4.88,5v9.78H6.22ZM16.65,67.54V59.69c0-2.38-.86-3-2.84-3H8.23V67.54Z"/><path class="cls-1" d="M24.28,56.7h-2.7v-2h4.68v9.17h-2Z"/><path class="cls-1" d="M33.73,69.12,38.26,56.7H29.17V51.46h2V54.7H40.7v1.09L35.86,69.52H33.73v-.41Z"/><path class="cls-1" d="M45.72,56.7H43v-2H47.7v9.17h-2Z"/><path class="cls-1" d="M53.31,56.7H50.62v-2h4.67v9.17h-2Z"/><path class="cls-1" d="M59.33,61.75v-7h2l0,7c0,3.76,1.75,6,4.7,6s4.82-2.2,4.82-6.1c0-3.13-.78-5.13-3.19-5.13a3.87,3.87,0,0,0-2.52,1l-.74-1.52a6.1,6.1,0,0,1,3.87-1.46c3.38,0,4.58,2.72,4.58,7,0,4.82-2.18,8.32-6.85,8.32s-6.71-3.5-6.71-8Z"/><path class="cls-1" d="M82.35,69.58l.14-2a8.39,8.39,0,0,0,1.2.09c3.36,0,4.36-3,4.36-5.94,0-3.53-1.75-5.22-4.21-5.22-2.81,0-4.16,2.18-4.62,5.71l-1,7.34H76.12l1.47-9.86a15.93,15.93,0,0,0-2.18-4.56v-.4H77.5a12.62,12.62,0,0,1,1.55,3,5.4,5.4,0,0,1,5.07-3.27c3.21,0,5.88,2,5.91,7.17,0,3.78-1.38,8-6.23,8-.48,0-.94,0-1.46-.08Z"/><path class="cls-2" d="M133.71,30.89a14.5,14.5,0,0,0-23.55,0,14.61,14.61,0,0,0-6.64-5.08L101.77,31a9,9,0,0,1,5.63,8.35V69.53h5.52V39.38a9,9,0,0,1,18,0h0V69.53h5.52V39.38a9,9,0,0,1,7.21-8.83V25a14.54,14.54,0,0,0-10,5.91Z"/><path class="cls-2" d="M169,25a14.51,14.51,0,0,0-11.74,6,14.57,14.57,0,0,0-10-6v5.57a9,9,0,0,1,7.21,8.83V69.53H160v-30a9,9,0,1,1,18,0v30h5.51v-30A14.54,14.54,0,0,0,169,25Z"/><path class="cls-2" d="M197.37,15.61c-.87-1.64-2.66-1.57-4.3-.34a3.89,3.89,0,0,1-1.74.72c-1.63.24-2.69-1.47-3.4-2.69-.4-.69-.76-1.41-1.13-2.12a3.13,3.13,0,0,0-1.25-1.4,24.22,24.22,0,0,1-4-2.09,21.19,21.19,0,0,1-3.62-3.32c-.15-.09-.46.18-.43.86A4.34,4.34,0,0,0,179,7.79a4,4,0,0,1-2-2c0-.15-.21-.19-.34.21a2.48,2.48,0,0,0-.06,1.29,3.69,3.69,0,0,0,1.5,2.07,2.83,2.83,0,0,1-1.59-1.11,3.32,3.32,0,0,1-.41-.79c0-.08-.07-.15-.13-.1h0a1.73,1.73,0,0,0-.21,1.09c.06,1.36.47,2.4,1.85,2.81A1.94,1.94,0,0,1,176.4,11a3.88,3.88,0,0,1-.81-.88c-.09-.16-.22-.18-.32.32a4.27,4.27,0,0,0,0,1.34,3.16,3.16,0,0,0,1.18,2,1.68,1.68,0,0,0-.11.77,1.6,1.6,0,0,0,1.26,1.31s.06.05.1.06a1.19,1.19,0,0,0-.13.75A1.28,1.28,0,0,0,179,17.7l.08,0s0,.05,0,.08a1.32,1.32,0,0,0,0,.49,1.29,1.29,0,0,0,1.44,1.05h.15a1.05,1.05,0,0,0,0,.4,1,1,0,0,0,1.16.83.84.84,0,0,0,.24-.07,1.7,1.7,0,0,0,0,.22,1,1,0,0,0,.86.82,1.18,1.18,0,0,0,.46,0,1.21,1.21,0,0,0,.38-.12c.79,1.59,1.71-.58,2.36-.15s.26,1.86-3.5,1.81c-1.63,0-3.41.15-3.43.52A10.86,10.86,0,0,1,184,28c.12.18.39.2.68-.2A15.47,15.47,0,0,1,191,22.5c4.77-2,5.59-3.77,6.16-5.8.12-.42,1.33-.58,1.33-.62A3,3,0,0,0,197.37,15.61Z"/></svg>